<svg version="1.1" id="Ebene_1" xmlns="http://www.w3.org/2000/svg" xmlns:xlink="http://www.w3.org/1999/xlink" x="0px" y="0px" style="enable-background:new 0 0 595.28 841.89;" xml:space="preserve" viewBox="157.3 363.52 284.2 92.58">
<style type="text/css">
	.st0{fill:#FFFFFF;}
</style>
<g>
	<path class="st0" d="M224.1,415.72c-0.41-0.08-0.8-0.21-1.17-0.36c-0.37-0.16-0.73-0.35-1.06-0.57c-0.33-0.22-0.64-0.48-0.92-0.76   c-0.28-0.28-0.54-0.59-0.76-0.92c-0.22-0.33-0.42-0.69-0.57-1.06c0,0-2.82-7.67-3.65-9.39c-0.43-0.9-0.93-1.74-1.54-2.49   c-0.61-0.75-1.31-1.42-2.13-2c-0.82-0.58-1.74-1.08-2.79-1.48c-1.05-0.4-2.21-0.71-3.51-0.92c0,0-0.31-0.08-1.05-0.17   c8.12,0,14.17-4.17,14.17-16.02c0-8.75-6.46-16.02-16.93-16.02l-20.37,0h-24.5v3.69c3.44,0,6.24,2.79,6.24,6.24v36.14   c0,3.44-2.79,6.24-6.24,6.24v3.68h30.76v-3.68c-3.44,0-6.24-2.79-6.24-6.24v-11.76h8.38c4.99,0,7.25,5.51,9.19,10.86   c1.95,5.36,3.73,10.82,9.41,10.82h16.52v-3.68C224.92,415.84,224.5,415.8,224.1,415.72z M192.33,392.17h-10.49v-22.96h10.49   c7.37,0,9.64,5.14,9.64,11.48C201.97,387.03,199.7,392.17,192.33,392.17z"/>
	<path class="st0" d="M353.62,363.54l-20.15,0h-24.5v3.69c3.44,0,6.24,2.79,6.24,6.24v36.14c0,3.44-2.79,6.24-6.24,6.24v3.68h44.65   v0c10.47,0,17.72-8.4,17.72-17.15v-21.68C371.34,371.94,364.09,363.54,353.62,363.54z M353.62,402.37c0,6.34-2.27,11.48-9.64,11.48   H333.5v-44.64h10.49c7.37,0,9.64,5.14,9.64,11.48V402.37z"/>
	<path class="st0" d="M304.71,415.84c-0.1,0-0.19-0.01-0.29-0.02c-0.1-0.01-0.19-0.02-0.29-0.04c-0.1-0.01-0.19-0.03-0.28-0.05   c-0.09-0.02-0.19-0.04-0.28-0.06c-0.09-0.02-0.18-0.05-0.27-0.08c-0.09-0.03-0.18-0.06-0.27-0.09c-0.09-0.03-0.17-0.07-0.26-0.1   c-0.09-0.04-0.17-0.07-0.25-0.11c-0.08-0.04-0.17-0.08-0.25-0.13c-0.08-0.04-0.16-0.09-0.24-0.14c-0.08-0.05-0.16-0.1-0.23-0.15   c-0.08-0.05-0.15-0.11-0.22-0.16c-0.07-0.06-0.15-0.11-0.22-0.17c-0.07-0.06-0.14-0.12-0.21-0.18c-0.07-0.06-0.13-0.12-0.2-0.19   c-0.07-0.06-0.13-0.13-0.19-0.2c-0.06-0.07-0.12-0.14-0.18-0.21c-0.06-0.07-0.12-0.14-0.17-0.22c-0.05-0.07-0.11-0.15-0.16-0.22   c-0.05-0.08-0.1-0.15-0.15-0.23c-0.05-0.08-0.09-0.16-0.14-0.24c-0.04-0.08-0.09-0.16-0.13-0.25c-0.04-0.08-0.08-0.17-0.12-0.25   c-0.04-0.09-0.07-0.17-0.1-0.26c-0.03-0.09-0.06-0.18-0.09-0.27c-0.03-0.09-0.05-0.18-0.08-0.27l-13.15-47.99h-38.83l-13.15,47.99   c-0.02,0.09-0.05,0.18-0.08,0.27c-0.03,0.09-0.06,0.18-0.09,0.27c-0.03,0.09-0.07,0.17-0.1,0.26c-0.04,0.09-0.07,0.17-0.12,0.25   c-0.04,0.08-0.08,0.17-0.13,0.25c-0.04,0.08-0.09,0.16-0.14,0.24c-0.05,0.08-0.1,0.16-0.15,0.23c-0.05,0.08-0.11,0.15-0.16,0.22   c-0.06,0.07-0.11,0.15-0.17,0.22c-0.06,0.07-0.12,0.14-0.18,0.21c-0.06,0.07-0.12,0.13-0.19,0.2c-0.07,0.07-0.13,0.13-0.2,0.19   c-0.07,0.06-0.14,0.12-0.21,0.18c-0.07,0.06-0.14,0.12-0.22,0.17c-0.07,0.05-0.15,0.11-0.22,0.16c-0.08,0.05-0.15,0.1-0.23,0.15   c-0.08,0.05-0.16,0.09-0.24,0.14c-0.08,0.04-0.16,0.09-0.25,0.13c-0.08,0.04-0.17,0.08-0.25,0.11c-0.09,0.04-0.17,0.07-0.26,0.1   c-0.09,0.03-0.18,0.06-0.27,0.09c-0.09,0.03-0.18,0.05-0.27,0.08c-0.09,0.02-0.18,0.04-0.28,0.06c-0.09,0.02-0.19,0.04-0.28,0.05   c-0.09,0.01-0.19,0.03-0.29,0.04c-0.1,0.01-0.19,0.02-0.29,0.02c-0.1,0-0.2,0.01-0.3,0.01v3.73h28.35v-3.73   c-0.07,0-0.15,0-0.22-0.01c-0.07,0-0.15-0.01-0.22-0.02c-0.07-0.01-0.14-0.02-0.22-0.03c-0.07-0.01-0.14-0.02-0.21-0.04   c-0.07-0.01-0.14-0.03-0.21-0.05c-0.07-0.02-0.14-0.04-0.21-0.06c-0.07-0.02-0.13-0.04-0.2-0.07c-0.07-0.02-0.13-0.05-0.2-0.08   c-0.06-0.03-0.13-0.06-0.19-0.09c-0.06-0.03-0.13-0.06-0.19-0.1c-0.06-0.03-0.12-0.07-0.18-0.1c-0.06-0.04-0.12-0.07-0.17-0.11   c-0.06-0.04-0.11-0.08-0.17-0.12c-0.06-0.04-0.11-0.08-0.16-0.13c-0.05-0.04-0.1-0.09-0.16-0.14c-0.05-0.05-0.1-0.09-0.15-0.14   c-0.05-0.05-0.1-0.1-0.14-0.15c-0.05-0.05-0.09-0.1-0.14-0.16c-0.04-0.05-0.09-0.11-0.13-0.16c-0.04-0.05-0.08-0.11-0.12-0.17   c-0.04-0.06-0.08-0.12-0.11-0.17c-0.04-0.06-0.07-0.12-0.1-0.18c-0.03-0.06-0.06-0.12-0.09-0.19c-0.03-0.06-0.06-0.13-0.09-0.19   c-0.03-0.06-0.05-0.13-0.08-0.2c-0.02-0.07-0.05-0.13-0.07-0.2c-0.02-0.07-0.04-0.14-0.06-0.2c-0.02-0.07-0.04-0.14-0.05-0.21   c-0.01-0.07-0.03-0.14-0.04-0.21c-0.01-0.07-0.02-0.14-0.03-0.22c-0.01-0.07-0.01-0.15-0.02-0.22c0-0.07-0.01-0.15-0.01-0.22   c0-0.07,0-0.15,0.01-0.22c0-0.07,0.01-0.15,0.02-0.22c0.01-0.07,0.02-0.15,0.03-0.22c0.01-0.07,0.02-0.14,0.04-0.21   c0.01-0.07,0.03-0.14,0.05-0.21l1.95-7.92h23.29l1.84,7.92c0.02,0.07,0.04,0.14,0.05,0.21c0.01,0.07,0.03,0.14,0.04,0.21   c0.01,0.07,0.02,0.14,0.03,0.22c0.01,0.07,0.01,0.15,0.02,0.22c0,0.07,0.01,0.15,0.01,0.22c0,0.08,0,0.15-0.01,0.22   c0,0.07-0.01,0.15-0.02,0.22c-0.01,0.07-0.02,0.15-0.03,0.22c-0.01,0.07-0.02,0.14-0.04,0.21c-0.01,0.07-0.03,0.14-0.05,0.21   c-0.02,0.07-0.04,0.14-0.06,0.2c-0.02,0.07-0.04,0.13-0.07,0.2c-0.02,0.07-0.05,0.13-0.08,0.2c-0.03,0.06-0.06,0.13-0.09,0.19   c-0.03,0.06-0.06,0.13-0.09,0.19c-0.03,0.06-0.07,0.12-0.1,0.18c-0.04,0.06-0.07,0.12-0.11,0.17c-0.04,0.06-0.08,0.11-0.12,0.17   c-0.04,0.06-0.08,0.11-0.13,0.16c-0.04,0.05-0.09,0.11-0.14,0.16c-0.05,0.05-0.09,0.1-0.14,0.15c-0.05,0.05-0.1,0.1-0.15,0.14   c-0.05,0.05-0.1,0.09-0.16,0.14c-0.05,0.04-0.11,0.09-0.16,0.13c-0.06,0.04-0.11,0.08-0.17,0.12c-0.06,0.04-0.12,0.08-0.17,0.11   c-0.06,0.04-0.12,0.07-0.18,0.1c-0.06,0.03-0.12,0.06-0.19,0.1c-0.06,0.03-0.13,0.06-0.19,0.09c-0.06,0.03-0.13,0.05-0.2,0.08   c-0.07,0.02-0.13,0.05-0.2,0.07c-0.07,0.02-0.14,0.04-0.21,0.06c-0.07,0.02-0.14,0.03-0.21,0.05c-0.07,0.01-0.14,0.03-0.21,0.04   c-0.07,0.01-0.14,0.02-0.22,0.03c-0.07,0.01-0.15,0.01-0.22,0.02c-0.07,0-0.15,0.01-0.22,0.01v3.68h29.2v-3.68   C304.91,415.84,304.81,415.84,304.71,415.84z M256.26,396.85l6.8-27.64h7.37l6.42,27.64H256.26z"/>
	<path class="st0" d="M423.78,363.54h-24.09c-10.47,0-17.72,8.4-17.72,17.15v21.68c0,8.75,7.25,17.15,17.72,17.15v0h24.09v0   c10.47,0,17.72-8.4,17.72-17.15v-21.68C441.5,371.94,434.25,363.54,423.78,363.54z M423.78,402.37c0,6.34-2.27,11.48-9.64,11.48   h-4.82c-7.37,0-9.64-5.14-9.64-11.48v-21.68c0-6.34,2.27-11.48,9.64-11.48h4.82c7.37,0,9.64,5.14,9.64,11.48V402.37z"/>
</g>
<g>
	<path class="st0" d="M167.05,442.24c0-1.91-0.69-3.24-2.83-3.24c-1.89,0-3.01,1.02-3.01,2.96c0,5.12,8.59,2.06,8.59,8.72   c0,4.21-3.08,5.41-5.66,5.41c-4.26,0-5.51-2.19-5.51-6.07h2.24c0,2.04,0.13,4.23,3.42,4.23c1.79,0,3.16-1.28,3.16-3.21   c0-5.15-8.59-2.17-8.59-8.85c0-1.68,0.71-5.02,5.33-5.02c3.47,0,5.05,1.73,5.1,5.07H167.05z"/>
	<path class="st0" d="M185.41,437.53h2.24l2.78,14.89h0.05l2.58-14.89h2.7l2.58,14.89h0.05l2.78-14.89h2.24l-3.75,18.21h-2.73   l-2.5-14.74h-0.05l-2.63,14.74h-2.73L185.41,437.53z"/>
	<path class="st0" d="M219.71,437.53h2.24v18.21h-2.24V437.53z"/>
	<path class="st0" d="M245.06,455.73h-2.24v-16.22h-4.56v-1.99h11.4v1.99h-4.59V455.73z"/>
	<path class="st0" d="M265.05,453.84l8.18-14.33h-7.73v-1.99h10.07v2.07l-8.18,14.15h8.29v1.99h-10.63V453.84z"/>
	<path class="st0" d="M292.36,437.53h9.41v1.99h-7.17v5.71h6.76v1.99h-6.76v6.53h7.47v1.99h-9.71V437.53z"/>
	<path class="st0" d="M318.78,437.53h5.89c2.86,0,4.67,1.68,4.67,4.56c0,1.99-0.69,4.08-2.8,4.59v0.05   c1.58,0.18,2.47,1.48,2.58,3.03l0.15,3.11c0.1,2.01,0.43,2.52,0.97,2.86h-2.7c-0.38-0.38-0.56-1.73-0.61-2.63l-0.15-2.83   c-0.18-2.5-1.56-2.65-2.7-2.65h-3.04v8.11h-2.24V437.53z M321.02,445.79h2.22c1.33,0,3.75,0,3.75-3.52c0-1.78-1.2-2.91-3.29-2.91   h-2.68V445.79z"/>
	<path class="st0" d="M346.62,437.53h2.24v16.22h7.39v1.99h-9.64V437.53z"/>
	<path class="st0" d="M376.13,437.53h3.01l4.89,18.21h-2.35l-1.3-5h-5.81l-1.35,5h-2.35L376.13,437.53z M375.03,448.9h4.89   l-2.32-8.8h-0.05L375.03,448.9z"/>
	<path class="st0" d="M399.92,437.53h2.91l6.02,15.2h0.05v-15.2h2.24v18.21h-3.08L402.21,441h-0.05v14.74h-2.24V437.53z"/>
	<path class="st0" d="M428.94,437.53h4.87c5.66,0,6.38,4.08,6.38,9.1c0,4.59-1.15,9.1-6.14,9.1h-5.1V437.53z M431.18,453.9h2.35   c3.88,0,4.31-3.98,4.31-7.24c0-3.52-0.23-7.29-4.31-7.29h-2.35V453.9z"/>
</g>
</svg>